<svg width="172" height="200" viewBox="0 0 172 200" fill="none" xmlns="http://www.w3.org/2000/svg">
<g clip-path="url(#clip0_497_3314)">
<path d="M0.183594 65.2764C0.199563 64.9901 0.312215 64.7177 0.503085 64.5038C0.693956 64.2899 0.951765 64.1471 1.23432 64.0989C2.07479 63.8449 2.88545 63.5011 3.65222 63.0733C3.74555 63.0158 3.824 62.9371 3.8812 62.8436C3.93839 62.7501 3.97268 62.6444 3.98133 62.5352C3.84841 61.231 4.26618 60.0029 4.55734 58.7874C4.82318 57.6605 5.10165 56.54 5.31686 55.4068C5.31007 55.1371 5.20679 54.8787 5.02572 54.6787C4.65573 54.1396 4.48763 53.4873 4.55101 52.8365C4.56394 51.8579 4.46625 50.881 4.25983 49.9244C4.1976 49.7663 4.09754 49.6259 3.96843 49.5156C3.83931 49.4052 3.68509 49.3282 3.51929 49.2913C3.42613 49.2966 3.33289 49.2825 3.24542 49.25C3.15795 49.2175 3.07811 49.1673 3.01096 49.1025C2.9438 49.0377 2.89076 48.9598 2.85515 48.8735C2.81954 48.7872 2.80215 48.6946 2.80404 48.6013C2.7029 47.871 2.64582 47.1353 2.63313 46.3982C2.63313 45.5878 2.74075 44.8598 3.75348 44.5306C4.21553 44.3787 4.55101 43.7393 4.86749 43.2645C5.40668 42.3824 5.72578 41.3836 5.79791 40.3523C5.84127 39.9865 5.96616 39.6351 6.16334 39.3239C6.36052 39.0127 6.625 38.7498 6.93726 38.5544C7.83403 37.9418 8.45274 36.9999 8.65889 35.9335C8.73535 35.4198 8.93703 34.9328 9.2461 34.5155C9.55517 34.0982 9.96214 33.7633 10.4312 33.5405C10.6684 33.4073 10.8586 33.2038 10.9755 32.9581C11.6591 31.8122 12.3237 30.6473 12.982 29.4888C13.1694 29.1564 13.4473 28.8841 13.7835 28.7036C14.1197 28.5232 14.5003 28.442 14.8809 28.4696C15.3693 28.4963 15.8562 28.3932 16.292 28.1708C16.7277 27.9484 17.0969 27.6147 17.362 27.2034C17.9691 26.5126 18.6364 25.877 19.3559 25.3042C20.0711 24.5952 20.7863 23.8861 21.4572 23.1391C21.5566 23.0424 21.6356 22.9267 21.6895 22.799C21.7434 22.6712 21.7711 22.5339 21.7711 22.3953C21.7711 22.2566 21.7434 22.1193 21.6895 21.9916C21.6356 21.8638 21.5566 21.7481 21.4572 21.6514C20.5584 20.5055 20.5711 19.499 21.318 18.2328C21.7104 17.5618 21.8877 16.7578 22.3371 16.1373C23.603 14.3711 24.4258 12.149 27.1538 11.7628C27.9297 11.6631 28.6492 11.3045 29.196 10.745C29.7428 10.1855 30.0848 9.45782 30.1667 8.67976C30.3189 7.71962 30.5627 6.77627 30.8946 5.8626C31.0529 5.34981 32.3188 5.22953 32.8568 5.66635C33.3948 6.10317 34.0468 6.61595 34.6671 7.04644C34.8684 7.24344 35.1364 7.35739 35.4179 7.3656C35.6994 7.37382 35.9737 7.27569 36.1861 7.09076C36.3051 6.99809 36.4533 6.95093 36.6039 6.9578C38.0914 7.02111 39.5788 7.04645 41.0346 7.19205C42.0157 7.28702 42.3005 7.19204 42.7626 6.33107C43.0374 5.90309 43.4203 5.55532 43.8727 5.32298C44.3251 5.09063 44.8308 4.98195 45.3387 5.00795C46.0494 4.91762 46.7228 4.63773 47.2882 4.19762C48.1522 3.69662 49.0967 3.34961 50.0795 3.17205C51.4657 2.89983 52.8899 2.86817 54.2824 2.65926C54.7282 2.56417 55.1475 2.37177 55.5103 2.09582C56.5167 1.40577 58.5548 1.50706 59.5992 2.14014C59.9547 2.32459 60.3577 2.39729 60.7553 2.34871C61.1529 2.30014 61.5265 2.13255 61.8272 1.86792C62.4602 1.37412 63.0235 1.03226 63.7641 1.60836C63.8109 1.6264 63.8628 1.6264 63.9096 1.60836C64.7902 1.37793 65.7106 1.34335 66.606 1.50706C67.4289 1.63368 68.3593 1.07025 69.2391 0.817019C69.9227 0.620766 70.5937 0.373866 71.2836 0.240921C72.1824 0.0699916 72.3912 0.240911 72.6254 1.12088C72.677 1.29028 72.7131 1.46405 72.733 1.64C72.771 2.24142 73.1191 2.30474 73.5622 2.08316C73.8179 1.9304 74.0575 1.75224 74.2774 1.55138C74.7015 1.22852 75.0686 1.34879 75.1509 1.86158C75.2332 2.37437 75.2522 3.01377 74.575 3.32398C74.3386 3.46355 74.1251 3.63864 73.942 3.8431C73.7786 3.96363 73.6512 4.12653 73.5737 4.31419C73.4961 4.50186 73.4713 4.70715 73.5019 4.90789C73.5326 5.10863 73.6175 5.29719 73.7474 5.45318C73.8774 5.60916 74.0476 5.72665 74.2395 5.79295C74.4774 5.90109 74.6811 6.07235 74.8286 6.28812C74.976 6.50389 75.0616 6.75595 75.0759 7.01692C75.0903 7.27789 75.0329 7.5378 74.91 7.76844C74.7871 7.99909 74.6033 8.19166 74.3787 8.32524C73.4799 8.75573 73.2521 9.59138 72.828 10.2814C72.4039 10.9715 73.2204 12.054 74.0939 12.3516C74.2597 12.4118 74.4287 12.4625 74.6003 12.5035C75.651 12.7884 75.7206 12.877 75.7016 13.7317C76.3346 14.0925 76.8979 14.3647 77.4106 14.7129C77.7757 14.9393 78.1978 15.0566 78.6273 15.051C79.0568 15.0454 79.4758 14.9171 79.8348 14.6813C80.107 14.4571 80.4439 14.3262 80.796 14.308C81.1482 14.2897 81.4968 14.3851 81.7906 14.58C82.8224 15.0928 83.8667 15.5929 84.9174 16.0551C85.1795 16.1418 85.4174 16.2891 85.612 16.4848C85.8066 16.6806 85.9525 16.9194 86.0378 17.1819C86.5505 18.8089 87.5442 19.6002 89.2342 19.461C91.3419 19.2837 92.8737 20.4232 94.5194 21.3602C94.892 21.6173 95.2935 21.8298 95.7157 21.9933C96.0039 22.1301 96.331 22.1614 96.6399 22.0815C96.9488 22.0017 97.2199 21.8158 97.4057 21.5564C97.4215 21.5363 97.4408 21.5192 97.4626 21.5058C98.6463 20.5815 98.7665 19.5243 98.0576 18.2075C97.4247 17.0237 97.7032 16.3969 98.8615 15.7258C99.2982 15.4726 99.6907 15.1498 100.127 14.9219C101.64 14.1368 103.229 14.5103 104.799 14.6939C104.876 14.7019 104.948 14.7328 105.007 14.7826C106.4 16.112 108.274 16.4792 109.957 17.2199C110.277 17.3617 110.557 17.579 110.774 17.853C110.954 18.1577 111.248 18.3781 111.591 18.466C111.934 18.5538 112.298 18.5018 112.603 18.3214C113.419 17.9226 114.204 17.6884 115.046 18.3911C115.436 18.6703 115.909 18.8107 116.388 18.7899C117.749 18.7519 118.876 19.3913 120.002 19.9801C121.129 20.5688 121.635 20.5372 122.42 19.6002C122.42 19.6002 122.42 19.5433 122.464 19.537C123.469 18.9938 124.512 18.5241 125.585 18.1315C126.13 17.9425 126.717 17.9063 127.282 18.0268C127.846 18.1473 128.367 18.42 128.788 18.8152C129.743 19.8345 130.813 19.5876 131.902 19.6192C132.75 19.6192 133.598 19.6192 134.592 19.6192C134.826 23.0188 135.541 26.3931 135.453 29.8054C134.655 30.0586 134.187 29.913 133.839 29.3052C133.288 28.4063 132.573 27.6086 132.054 26.697C131.535 25.7854 131.256 24.918 130.845 24.0317C130.707 23.7698 130.55 23.5181 130.376 23.2784C130.169 23.6 130.046 23.969 130.019 24.3509C129.993 24.7328 130.063 25.1152 130.224 25.4625C130.477 26.3279 130.955 27.1103 131.611 27.7289C132.566 28.6342 133.193 29.894 133.953 31.0082C134.004 31.0962 134.024 31.1987 134.01 31.2994C133.788 32.6289 134.642 33.5088 135.275 34.4964C136.022 35.6549 136.719 36.8451 137.396 38.048C137.781 38.7383 138.111 39.458 138.383 40.2004C138.472 40.4346 138.307 40.7638 138.25 41.0487C138.136 41.6375 138.01 42.2262 137.877 42.8846C138.928 42.9226 139.219 43.5937 139.637 44.1508C139.799 44.3952 140.048 44.5693 140.333 44.6382C141.048 44.7015 141.472 44.9801 141.51 45.7334C141.509 46.0105 141.524 46.2874 141.554 46.5628C141.63 47.0566 141.789 47.4934 142.377 47.5884C143.111 47.7023 143.162 48.1455 142.953 48.7532C142.744 49.361 142.618 49.8864 142.478 50.4625C142.454 50.5349 142.444 50.6118 142.451 50.6881C142.457 50.7644 142.48 50.8385 142.516 50.9056C143.396 51.8109 143.092 53.0771 143.517 54.109C143.669 54.4147 143.885 54.6845 144.149 54.9003C144.744 55.4701 145.65 55.717 145.865 56.6919C145.915 56.9072 146.498 56.9895 146.561 57.2237C146.829 57.9706 147.041 58.7367 147.194 59.5154C147.428 60.5473 147.194 61.7185 148.105 62.5542C148.283 62.7251 148.498 62.858 148.681 63.029C149.049 63.3582 149.549 63.662 149.745 64.0482C149.931 64.447 150.217 64.7911 150.576 65.0472C150.934 65.3034 151.352 65.4629 151.789 65.5106C152.303 65.6294 152.774 65.8879 153.15 66.2576C153.732 66.8337 154.176 67.5554 154.726 68.1568C154.934 68.4079 155.231 68.5689 155.555 68.6063C156.093 68.6063 156.29 68.7836 156.473 69.271C156.699 69.7316 156.989 70.1579 157.334 70.5372C157.48 70.7334 157.72 70.8601 157.885 71.05C158.25 71.3894 158.486 71.846 158.551 72.3408C158.615 72.8356 158.505 73.3374 158.239 73.7595C159.092 74.2755 159.784 75.0186 160.239 75.9056C160.478 76.3024 160.843 76.6073 161.276 76.7715C161.708 76.9357 162.184 76.9496 162.625 76.8109C162.796 76.7793 163.043 76.716 163.094 76.5957C163.423 75.8107 164.132 75.9626 164.74 75.9246C165.214 75.8803 165.695 75.9246 166.176 75.9246C166.801 75.9229 167.405 75.6984 167.879 75.2916C168.715 74.6015 169.822 74.7598 170.86 74.7535C172.009 74.7987 173.16 74.7159 174.291 74.5066C175.154 74.1913 175.973 73.7657 176.728 73.2404C177.873 72.6073 178.285 72.8796 178.278 74.19C178.162 75.147 178.334 76.117 178.772 76.9755C179.038 77.3997 178.652 77.7352 177.747 77.9061C177.665 78.4886 177.595 79.0837 177.494 79.6787C177.289 80.7783 176.733 81.7821 175.911 82.5402C175.891 82.5561 175.874 82.5754 175.861 82.5972C175.12 83.819 174.512 85.1295 173.411 86.1234C173.202 86.3133 173.36 86.8578 173.246 87.2123C173.062 87.9499 172.788 88.6621 172.43 89.3331C171.624 90.6401 170.739 91.896 169.778 93.0935C168.936 94.1318 167.93 95.0244 166.993 95.9803C166.265 96.7337 165.55 97.5124 164.79 98.2341C164.382 98.6494 163.91 98.9957 163.391 99.2597C160.771 100.437 159.037 102.666 157.062 104.603C156.237 105.381 155.551 106.295 155.036 107.306C154.663 108.066 153.726 108.572 153.049 109.174C152.897 109.307 152.694 109.477 152.682 109.642C152.675 109.86 152.586 110.067 152.432 110.221C152.278 110.376 152.07 110.465 151.853 110.471C151.547 110.525 151.263 110.667 151.038 110.881C150.813 111.095 150.656 111.371 150.587 111.674C150.286 112.322 149.924 112.939 149.504 113.516C148.985 114.352 148.447 115.169 147.928 116.004C147.853 116.137 147.82 116.289 147.833 116.441C147.855 116.819 147.798 117.198 147.667 117.553C147.535 117.909 147.331 118.233 147.067 118.505C146.548 119.208 146.586 119.461 147.245 120.037C147.454 120.221 147.675 120.392 147.878 120.569C148.941 121.461 149.144 122.259 148.542 123.513C148.303 124.063 148.213 124.667 148.279 125.263C148.346 125.859 148.567 126.428 148.922 126.912C149.136 127.255 149.244 127.654 149.232 128.058C149.182 128.432 149.257 128.812 149.444 129.139C149.632 129.467 149.922 129.723 150.27 129.869C150.507 129.985 150.702 130.173 150.826 130.406C150.951 130.639 151 130.905 150.966 131.166C150.966 132.198 151.055 133.23 151.112 134.269C151.102 134.369 151.113 134.47 151.144 134.566C151.891 135.832 151.384 137.155 151.144 138.453C151.037 138.829 151.015 139.225 151.081 139.61C151.147 139.996 151.298 140.362 151.523 140.682C151.716 141.113 151.741 141.6 151.593 142.049C151.406 142.674 151.172 143.284 150.89 143.872C150.89 143.917 150.815 143.967 150.821 143.999C151.068 145.17 150.042 145.721 149.625 146.569C148.643 148.563 147.029 149.101 145.023 149.177C144.805 149.188 144.598 149.273 144.434 149.418C142.215 151.444 140.002 153.478 137.795 155.521C137.303 155.991 136.841 156.49 136.408 157.015C136.314 157.126 136.243 157.254 136.198 157.393C136.154 157.532 136.138 157.678 136.151 157.823C136.164 157.968 136.206 158.109 136.274 158.237C136.342 158.366 136.435 158.48 136.548 158.572C136.978 158.984 137.402 159.395 137.814 159.838C137.909 159.946 137.883 160.167 137.896 160.338C138.054 162.966 138.219 165.587 138.371 168.207C138.371 168.397 138.371 168.689 138.288 168.758C137.464 169.352 136.594 169.879 135.687 170.335C134.275 170.968 132.756 171.373 131.37 172.044C130.427 172.506 130.509 172.918 131.433 173.462C131.617 173.57 131.889 173.753 131.889 173.911C131.889 174.747 132.009 175.602 131.503 176.374C131.358 176.66 131.262 176.968 131.218 177.286C130.952 178.463 130.718 179.647 130.421 180.818C130.307 181.293 129.971 181.508 129.465 181.73C127.845 182.439 125.775 183.984 125.889 186.326C125.894 186.649 125.784 186.963 125.579 187.212C123.635 189.396 121.686 191.581 119.679 193.714C118.778 194.636 117.83 195.511 116.837 196.335C116.516 196.556 116.151 196.707 115.768 196.778C114.344 197.145 112.875 197.411 111.489 197.873C110.519 198.247 109.446 198.247 108.476 197.873C108.238 197.77 107.982 197.717 107.723 197.717C107.464 197.717 107.207 197.77 106.97 197.873C106.482 198.067 105.94 198.078 105.444 197.905C104.761 197.715 103.988 197.512 103.507 198.386C103.431 198.525 103.128 198.601 102.925 198.614C101.536 198.634 100.167 198.945 98.9058 199.526C98.4046 199.762 97.8365 199.815 97.3001 199.676C96.7638 199.537 96.2928 199.215 95.9689 198.766C94.9435 197.544 93.8738 196.367 92.8864 195.119C92.5903 194.757 92.4381 194.299 92.4591 193.831C92.4802 193.364 92.6729 192.921 93.0003 192.587C93.2546 192.268 93.4065 191.88 93.4358 191.473C93.4652 191.066 93.3708 190.66 93.1649 190.308C91.899 188.016 90.6331 185.712 89.3671 183.414C89.2399 183.226 89.1636 183.007 89.1456 182.781C89.2342 181.439 88.2215 180.812 87.424 180.046C87.2459 179.906 87.0882 179.742 86.9556 179.558C86.0056 177.941 85.2754 176.203 84.7845 174.393C84.6594 173.342 84.6382 172.282 84.7212 171.227C84.7411 170.925 84.7155 170.622 84.6453 170.328C84.4143 169.327 84.0681 168.356 83.6135 167.435C83.417 167.182 83.2897 166.882 83.2442 166.564C83.1987 166.247 83.2366 165.923 83.3541 165.625C83.7528 164.751 83.5439 163.896 83.5186 163.029C83.5109 162.72 83.4165 162.42 83.2464 162.163C83.0763 161.905 82.8372 161.701 82.5565 161.573C82.3028 161.436 82.0837 161.242 81.9159 161.007C81.7481 160.773 81.636 160.503 81.5881 160.218C80.9551 157.876 80.4108 155.457 78.6828 153.584C78.2081 153.077 77.6258 152.666 77.1511 152.153C76.8789 151.889 76.6973 151.545 76.6321 151.172C76.5688 150.007 76.5878 148.842 76.6321 147.677C76.6422 146.483 76.9983 145.317 77.6574 144.322C78.5195 143.05 78.8574 141.494 78.6005 139.979C78.4975 139.386 78.5613 138.776 78.7849 138.217C79.0084 137.658 79.3829 137.172 79.8665 136.813C80.4994 136.282 80.9931 135.611 81.5691 135.022C82.3793 134.193 82.3033 133.123 82.1514 132.16C82.0755 131.648 81.4489 131.23 81.1007 130.749C80.9304 130.522 80.8076 130.264 80.7399 129.989C80.7262 129.688 80.6358 129.396 80.4774 129.14C80.3189 128.884 80.0978 128.673 79.8348 128.527C79.6929 128.477 79.5685 128.386 79.4767 128.267C79.3849 128.148 79.3296 128.005 79.3175 127.855C79.3055 127.704 79.3372 127.554 79.4087 127.422C79.4803 127.289 79.5888 127.181 79.7209 127.108C81.0944 126.007 80.9551 126.051 80.4108 124.399C79.9234 122.911 78.7271 121.974 78.0182 120.676C77.6718 120.089 77.5674 119.39 77.7271 118.727C77.8934 118.195 77.88 117.624 77.6889 117.101C77.4979 116.578 77.1397 116.132 76.67 115.833C75.9699 115.367 75.4584 114.667 75.2269 113.858C75.1496 113.642 75.0273 113.444 74.868 113.278C74.7087 113.112 74.5161 112.982 74.3028 112.896C72.6698 112.345 71.5937 111.066 70.3974 109.971C69.3087 108.977 69.6379 107.623 69.7645 106.394C69.8974 105.343 69.7645 104.223 70.524 103.286C70.7392 103.026 70.638 102.501 70.657 102.102C70.657 101.191 70.7013 100.285 70.7266 99.3736C70.6999 99.1238 70.733 98.8712 70.8233 98.6367C70.9135 98.4022 71.0583 98.1926 71.2456 98.0252C71.342 97.8971 71.4118 97.751 71.4509 97.5955C71.4901 97.4401 71.4977 97.2783 71.4735 97.1199C71.3848 95.7461 71.1886 94.5876 69.9544 93.486C68.4796 92.1756 66.9035 92.853 65.3971 92.5808C64.3155 92.484 63.2265 92.5074 62.15 92.6504C61.5563 92.7068 60.9623 92.5452 60.4789 92.1957C59.9955 91.8463 59.6558 91.3328 59.5232 90.7512C59.441 90.4346 59.346 90.1181 59.2637 89.8016C59.1503 89.267 58.8505 88.7902 58.4181 88.4562C57.9856 88.1223 57.4486 87.9529 56.9028 87.9783C55.9685 88.045 55.0325 87.8751 54.1811 87.4845C53.9152 87.3389 53.3899 87.6491 52.9975 87.7947C52.6587 87.9736 52.3076 88.1281 51.9468 88.2569C51.4479 88.3301 50.9445 88.3682 50.4403 88.3708C49.953 88.4025 49.4592 88.3328 49.2883 89.0419C49.2377 89.2445 48.706 89.3901 48.3769 89.4597C47.8518 89.4986 47.3296 89.5705 46.8135 89.675C46.3066 89.8959 45.8266 90.1741 45.383 90.5043C45.1298 90.6625 44.9146 90.9791 44.6614 91.0107C43.1993 91.1817 41.7435 91.7134 40.2307 91.3589C39.7921 91.2226 39.407 90.9526 39.1294 90.5866C39.0324 90.4355 38.9009 90.3097 38.7457 90.2194C38.5905 90.1292 38.4162 90.0771 38.2369 90.0675C36.0595 89.8269 34.0341 90.422 32.0403 91.1437C30.8606 91.5916 29.7087 92.1096 28.5907 92.6947C28.201 92.9209 27.7538 93.0283 27.3039 93.0035C26.8541 92.9788 26.4213 92.823 26.0588 92.5554C25.4259 92.1313 24.7929 91.7641 24.16 91.3716C22.6092 90.422 21.0458 89.4724 19.5204 88.5164C18.4001 87.7884 17.324 86.9907 16.2354 86.2121C14.2943 84.871 12.7418 83.0409 11.735 80.9069C11.4057 80.3428 11.0243 79.8108 10.5957 79.3179C10.3521 79.0335 10.1399 78.7236 9.96277 78.3936C9.48235 77.3038 8.72516 76.3588 7.76644 75.6524C7.36283 75.2742 7.03424 74.8231 6.79799 74.323C6.33594 73.5063 5.83589 72.8416 4.77253 72.7213C4.43706 72.6833 4.13956 72.1515 3.85473 71.8223C3.76612 71.721 3.77879 71.5311 3.70916 71.4045C3.48786 70.9969 3.35999 70.5451 3.33481 70.082C3.30964 69.6188 3.38779 69.1558 3.5636 68.7266C3.62157 68.4291 3.56262 68.1207 3.39902 67.8656C2.96228 67.2009 2.47491 66.5678 1.98121 65.9664C1.85385 65.8489 1.69583 65.7699 1.52546 65.7385C1.10771 65.5612 0.6773 65.4283 0.183594 65.2764Z" stroke="black" stroke-width="0.5" stroke-miterlimit="10"/>
<path d="M175.879 145.638L174.613 144.764C174.495 144.997 174.399 145.241 174.329 145.492C174.113 147.132 173.949 148.784 173.696 150.424C173.529 150.903 173.317 151.365 173.063 151.804C172.754 152.56 172.507 153.339 172.322 154.134C172.151 155.071 172.183 156.033 172.025 156.989C171.882 157.598 171.687 158.193 171.442 158.768C170.731 160.741 170.259 162.792 170.037 164.877C169.917 166.048 169.803 167.276 168.936 168.239C168.803 168.391 168.936 168.732 168.828 168.954C168.695 169.367 168.494 169.754 168.233 170.1C167.879 170.505 167.379 170.784 166.967 171.163C166.78 171.426 166.529 171.636 166.237 171.775C165.946 171.913 165.624 171.975 165.303 171.955C164.899 171.954 164.509 172.098 164.201 172.36C164.002 172.538 163.767 172.671 163.512 172.75C163.257 172.828 162.987 172.85 162.723 172.815C162.458 172.779 162.204 172.687 161.979 172.544C161.753 172.401 161.561 172.211 161.416 171.986C161.263 171.754 161.083 171.542 160.878 171.353C159.53 170.157 158.903 168.732 159.397 166.922C159.457 166.745 159.481 166.559 159.468 166.373C159.455 166.187 159.405 166.006 159.321 165.839C158.492 164.782 158.568 163.522 158.372 162.319C158.301 162.116 158.265 161.902 158.264 161.686C158.334 161.37 158.435 160.927 158.663 160.806C159.296 160.471 159.486 159.812 159.929 159.369C160.745 158.534 160.777 157.47 161.03 156.489C161.28 155.461 161.145 154.378 160.65 153.444C160.478 152.895 160.445 152.312 160.555 151.747C160.676 150.373 160.828 149 161.03 147.632C161.214 146.417 162.138 145.815 163.176 145.416C163.809 145.182 164.442 145.119 165.075 144.935C165.917 144.682 166.936 144.6 167.518 144.055C168.1 143.511 168.6 142.909 169.227 142.384C169.676 142.004 169.803 141.118 169.86 140.485C169.864 140.052 169.997 139.631 170.243 139.276C170.489 138.92 170.837 138.647 171.24 138.491C171.404 138.444 171.556 138.366 171.689 138.259C171.822 138.152 171.932 138.02 172.012 137.87C172.092 137.72 172.142 137.555 172.157 137.385C172.172 137.216 172.153 137.045 172.101 136.883C171.961 136.028 172.778 135.977 173.17 135.616C173.563 135.256 173.879 135.692 174.107 136.06C174.55 136.769 175.038 137.446 175.455 138.168C175.687 138.485 175.819 138.864 175.834 139.257C175.848 139.649 175.745 140.037 175.538 140.371C175.443 140.529 175.696 140.934 175.835 141.2C175.974 141.466 176.373 141.833 176.373 142.156C176.354 143.185 176.278 144.212 176.145 145.233C176.145 145.378 175.93 145.587 175.879 145.638Z" stroke="black" stroke-width="0.5" stroke-miterlimit="10"/>
</g>
<defs>
<clipPath id="clip0_497_3314">
<rect width="179" height="200" fill="white"/>
</clipPath>
</defs>
</svg>
