<svg width="206" height="197" viewBox="0 0 206 197" fill="none" xmlns="http://www.w3.org/2000/svg">
<path d="M96.3403 102.815C97.2766 101.466 97.1057 100.162 96.1846 98.9143C95.1641 97.5289 93.9955 96.4242 92.3576 95.8297C92.1024 95.7327 91.7554 95.4955 91.7018 95.2658C91.4084 93.9901 90.3139 93.8626 89.3597 93.5156C87.3875 92.7961 86.3133 91.2959 85.7877 89.3466C85.2622 87.3974 84.0707 85.8895 82.9812 84.3051C82.1699 83.1238 81.1264 82.1007 80.2359 80.9679C79.83 80.3946 79.4578 79.7983 79.121 79.1819L79.3761 78.9753L78.2382 78.5339C77.955 76.1101 77.9397 76.0973 74.8806 75.8651C73.8447 71.765 70.9387 68.6728 68.8848 65.0396C67.9408 66.7057 67.9 66.7159 66.2799 65.8331C65.4481 66.6776 63.8586 66.7899 62.8534 66.0882C61.616 65.2131 60.3173 64.4069 59.1641 63.4348C58.6818 63.0266 58.5007 62.2637 58.0772 61.4626C57.5669 61.5187 56.6969 61.756 55.8524 61.6641C55.1763 61.5927 54.541 61.1232 53.8878 60.8273C53.5663 60.6793 53.2576 60.4446 52.9208 60.3935C51.2446 60.1384 49.479 60.1996 47.9023 59.6715C45.9939 59.0286 43.8941 58.8704 42.2892 57.2298C41.4447 56.3726 39.845 56.2578 38.5719 55.8036C38.2989 56.9772 38.0259 57.8855 38.8781 59.0107C39.7302 60.1359 38.3448 60.5925 37.4569 61.187L37.1201 59.9394C35.8445 60.7048 34.6632 61.3631 33.5176 62.103C32.7726 62.5852 32.122 63.2128 31.3821 63.7027C30.7136 64.1441 30.188 63.8251 30.3615 63.098C30.8024 61.1773 31.3796 59.2904 32.0888 57.4518C32.5404 56.3445 33.663 55.8495 35.1505 56.1225C34.385 55.2193 33.8595 55.102 32.969 55.6811C30.9509 56.9568 29.2976 58.4877 28.3102 60.7278C28.0296 61.3631 27.2718 61.8172 26.6773 62.2841C26.0829 62.751 25.8405 63.2409 26.463 63.8507C27.1672 64.5344 26.9376 65.1519 26.3074 65.6902C25.6007 66.2949 24.8454 66.8434 24.1208 67.4277C23.2661 68.1166 22.3936 68.785 21.5695 69.5198C20.3907 70.5838 19.4237 71.8161 17.7704 72.3621C16.9055 72.6453 16.2167 73.6378 15.5814 74.4032C14.7113 75.4646 13.8184 76.3575 12.3131 76.2223C12.2289 76.2223 12.0962 76.1968 12.0579 76.2427C11.1905 77.4521 9.65962 77.1025 8.53701 77.7429C7.46543 78.3553 5.88613 78.5313 5.29166 79.4141C4.38592 80.7536 2.77088 80.0545 1.92382 81.1592C1.41354 81.8226 0.765489 81.5266 0.296034 80.9934C-0.249961 80.3683 0.199093 80.0086 0.722126 79.7177C1.25232 79.3761 1.8056 79.0718 2.37797 78.8069C3.993 78.169 5.61822 77.5694 6.90412 76.332C7.81241 75.4569 8.86359 75.2043 10.1342 75.7962C10.4378 73.8725 11.8334 73.1249 13.3412 72.4794C15.265 71.6732 16.6861 70.4077 17.1556 68.2799C17.3725 67.3078 17.5816 66.3357 17.8393 65.1646C15.4104 66.0423 13.2469 66.1239 11.1267 65.0115C10.8231 64.8534 10.3204 64.9784 9.94027 65.0881C9.10342 65.3279 8.28443 65.6417 7.23836 66.0015C7.36083 64.9631 7.43992 64.1823 7.54963 63.4042C8.13134 59.2046 7.57003 55.1326 6.33261 51.1065C6.16175 50.4004 6.20165 49.6597 6.44741 48.9761C7.26385 46.5497 8.5906 44.2229 8.9631 41.7455C9.34581 39.1941 8.96309 36.4922 8.66458 33.8821C8.53701 32.7187 8.56253 32.0349 9.81781 31.7441C10.226 31.6497 10.5832 31.3027 11.1496 30.9506C10.3587 30.8001 9.82545 30.6036 9.29732 30.6189C8.09562 30.6546 7.76649 30.0398 7.76649 28.9631C7.73332 27.1771 7.56492 25.4064 7.5343 23.6281C7.55099 23.1513 7.71698 22.6917 8.00886 22.3142C9.88412 19.8597 11.7824 17.4206 13.7316 15.0223C14.1191 14.5646 14.6302 14.228 15.2038 14.0528C17.3954 13.4201 19.6075 12.8562 21.8374 12.3332C22.4677 12.162 23.1296 12.1428 23.7687 12.277C31.9587 14.4687 40.0364 14.2697 47.989 11.2157C49.3311 10.7054 50.5251 11.0906 51.5788 11.8484C53.3648 13.1394 55.1099 14.4585 57.4623 14.6269C58.0695 14.6677 58.6768 15.2086 59.2125 15.6117C60.9985 16.9461 62.861 18.0814 65.0322 18.6427C65.4685 18.7575 65.915 18.8264 66.4814 18.9412C66.4727 18.7351 66.4454 18.5301 66.3998 18.3289C65.6522 16.4103 65.8895 15.6602 67.9459 15.2902C70.6759 14.7978 73.0487 13.6114 75.4215 12.3051C76.6622 11.6648 77.9471 11.114 79.2664 10.6569C79.4522 10.6056 79.6472 10.5971 79.8368 10.632C80.0264 10.6669 80.2056 10.7444 80.361 10.8585C80.5089 10.9886 80.4094 11.6239 80.2232 11.879C79.8085 12.4685 79.3129 12.9968 78.751 13.4481C76.5109 15.1779 74.23 16.8568 71.8955 18.6045L73.3625 20.1914C73.832 18.0381 74.8933 16.5276 77.1743 16.2215C77.3812 16.1747 77.5771 16.088 77.7509 15.9663C79.775 14.7332 81.794 13.4974 83.8079 12.2592C84.0385 12.0976 84.2584 11.9212 84.4661 11.731L83.2338 8.41424L83.7441 7.97285C84.2544 8.27391 84.9687 8.45761 85.2341 8.9041C86.0808 10.3641 86.8473 11.8691 87.5303 13.4124C88.0202 14.4891 88.704 15.2545 89.9312 15.53C90.171 15.0453 90.296 14.4355 90.6711 14.1166C91.1814 13.6726 91.8932 13.4481 92.5183 13.1292C92.6357 13.6777 92.7556 14.2288 92.9214 15.0019C93.6587 15.5326 94.3298 15.354 95.0875 14.1753C96.1081 12.5883 96.9194 12.2898 98.3635 13.3256C101.31 15.4407 104.785 16.0862 108.135 17.1145C110.35 17.7931 112.521 18.6223 114.69 19.4439C115.192 19.6752 115.643 20.0059 116.014 20.4159C116.269 20.6711 116.563 21.1405 116.471 21.3599C116.341 21.6687 115.891 21.883 115.537 22.0488C114.904 22.3422 114.136 22.4366 113.616 22.8525C112.955 23.3857 112.945 24.0619 113.978 24.2787C114.805 24.4497 115.657 24.6895 116.481 24.6385C118.759 24.5007 121.04 24.3093 123.298 23.9802C125.059 23.677 126.87 24.0399 128.378 24.9982C129.513 25.7228 130.294 26.6566 129.927 28.1747C129.84 28.5293 130.039 28.9554 130.133 29.5065C131.457 28.7794 131.22 27.7384 131.075 26.7765C131.001 26.2841 130.725 25.8249 130.564 25.3401C130.133 23.9419 130.638 23.0439 132.062 22.6739C133.167 22.3831 134.448 22.6305 135.297 21.5156C135.415 21.3625 136.083 21.5462 136.453 21.6865C138.826 22.577 141.168 23.5439 143.556 24.3833C144.156 24.5951 144.891 24.4752 145.556 24.4344C147.575 24.3093 149.588 24.1027 151.608 24.0338C152.154 24.0159 152.721 24.3655 153.269 24.5747C153.749 24.7584 154.213 24.9804 154.685 25.1845L154.94 24.7533C154.43 24.4012 153.943 24.0083 153.41 23.7047C152.876 23.4011 152.292 23.2786 151.805 22.9597C151.317 22.6407 151.126 22.1152 151.879 21.8524C152.695 21.5571 153.565 21.4379 154.431 21.5025C155.296 21.5672 156.139 21.8142 156.902 22.2274C157.28 22.4239 157.55 23.0949 157.601 23.5771C157.688 24.3706 157.54 25.1845 157.522 25.9907C157.505 26.9092 157.744 27.6644 159.015 27.866C159.061 27.0699 159.216 26.3147 159.122 25.5901C158.951 24.2915 159.487 23.3781 160.426 22.6025C160.755 22.3473 161.105 22.0922 161.411 21.7988C162.962 20.319 162.942 19.6811 161.273 18.3799C161.076 18.2243 160.867 18.084 160.666 17.936L160.681 17.4742C161.306 17.3262 161.941 17.2191 162.551 17.0149C163.04 16.834 163.52 16.628 163.988 16.3975C163.653 15.9663 163.408 15.3387 162.967 15.1371C161.281 14.3717 159.528 13.7313 157.8 13.045C157.525 12.9353 157.244 12.8383 156.976 12.7133C155.19 11.8841 155.142 10.588 156.976 9.14138C155.956 8.33004 155.073 7.38348 155.655 5.96491C156.122 4.82699 156.583 3.6406 158.056 3.51559C158.082 3.41899 158.103 3.32105 158.119 3.22217C158.183 2.50524 158.002 1.35201 158.352 1.16066C159.187 0.706154 160.151 0.543627 161.089 0.698858C163.283 1.17086 164.46 2.8063 164.705 4.94946C164.815 6.22105 165.378 7.41079 166.291 8.30198C166.579 8.61423 166.845 8.94676 167.085 9.29702C168.106 10.6416 168.07 10.7947 166.83 11.8816C166.352 12.3582 165.901 12.8616 165.48 13.3894C166.756 13.7823 167.702 14.1268 168.68 14.3641C169.797 14.6345 170.139 15.3361 169.861 16.3516C169.368 18.1376 170.519 19.3444 171.198 20.717L171.529 20.6813C171.575 20.0715 171.616 19.4592 171.67 18.8494C171.823 17.1298 173.139 16.4587 174.52 17.5074C175.247 18.0831 175.85 18.8011 176.29 19.6174C176.849 20.6379 176.724 21.7146 175.724 22.4596C174.872 23.0949 174.9 23.7889 175.431 24.539C176.135 25.5391 176.895 26.501 177.632 27.4782L178.398 27.1388C178.854 26.1795 179.367 25.2457 179.745 24.2583C180.031 23.5133 180.13 22.6994 180.337 21.9213C180.676 20.6456 180.628 19.0382 182.993 19.3393C182.531 18.5177 182.273 18.0176 181.972 17.5533C181.595 16.9435 181.092 16.395 180.814 15.7469C180.265 14.4585 181.021 13.3767 182.426 13.2772C184.621 13.1241 186.493 13.8334 188.147 15.2749C188.614 15.6831 189.351 15.7852 189.831 16.1832C190.31 16.5812 190.851 17.1349 190.979 17.714C191.3 19.0816 191.068 20.393 189.792 21.388L188.417 19.6352C187.943 21.166 188.568 22.2019 189.182 23.2301C189.723 24.1333 190.366 24.9804 190.9 25.8887C191.194 26.3636 191.333 26.9188 191.296 27.4765C191.26 28.0342 191.05 28.5665 190.695 28.9988C189.979 29.9381 189.19 30.8193 188.335 31.6344C187.514 32.4329 186.585 32.7595 185.736 31.5935C185.029 32.734 182.898 33.0325 181.567 32.3309C180.762 31.9573 179.936 31.6293 179.094 31.3486L178.903 31.7288C179.09 31.9041 179.285 32.0693 179.49 32.2237C180.189 32.7008 180.334 33.3795 179.811 33.9612C178.992 34.9092 178.068 35.7609 177.056 36.4998C176.329 37.0101 175.466 36.9693 174.619 36.2932C173.645 35.515 172.484 34.9716 171.32 34.4664C173.285 35.788 174.527 38.3471 177.408 38.0154C178.273 41.4189 175.54 44.1259 172.014 43.4422C171.981 43.5187 171.917 43.5952 171.92 43.6718C171.981 45.3659 172.068 45.7537 169.7 45.2843C168.598 45.0648 167.529 44.6719 166.383 44.5188C167.264 44.9934 168.208 45.3863 169.001 45.9782C169.442 46.3074 169.948 47.0371 169.853 47.458C169.759 47.879 168.998 48.2439 168.463 48.4786C168.016 48.6801 167.475 48.6699 166.932 48.7618C167.292 49.6599 167.09 50.3181 166.205 50.8208C164.98 51.5147 164.054 52.4715 163.985 54.01C163.943 54.2367 163.822 54.4412 163.643 54.5866C160.885 57.0436 160.372 60.1792 160.923 63.621C161.092 64.6748 161.837 65.2488 162.865 65.3381C164.429 65.4784 165.018 66.4811 165.289 67.841C165.444 68.6294 165.636 69.4127 165.799 70.2011C165.967 71.0328 166.485 71.3594 167.269 71.1323C170.432 70.2164 173.004 71.3874 175.334 73.3877C178.63 76.2223 182.508 77.4929 186.787 77.6205C188.142 77.6587 188.871 78.2685 188.996 79.5519C189.137 80.9806 189.111 82.4298 189.251 83.8586C189.359 84.8996 189.486 85.9839 189.882 86.9203C190.137 87.5275 190.882 87.9408 191.412 88.4205C191.972 88.8859 192.507 89.3807 193.015 89.9028C193.499 90.459 193.872 91.1147 194.484 91.9975C194.665 90.7728 194.739 89.9105 196.046 89.9564C196.301 89.9564 196.852 88.7088 196.811 88.0709C196.652 86.3038 196.387 84.5478 196.018 82.8125C195.873 82.2818 195.611 81.7902 195.252 81.3736C194.232 80.0188 194.334 79.3707 195.951 78.715C198.163 77.8195 199.799 76.2631 201.133 74.3598C202.095 72.9872 202.008 71.8263 200.965 70.5174C200.253 69.6219 199.505 68.7493 198.809 67.841C197.566 66.2158 197.388 64.4962 198.577 62.7816C199.467 61.4906 199.687 60.1563 199.133 58.6994C199.021 58.4035 198.845 57.9952 198.602 57.911C197.605 57.5615 197.694 56.9237 198.049 56.194C198.689 54.8877 199.225 53.7293 198.1 52.2495C197.265 51.1524 198.5 49.443 200.054 49.4966C201.106 49.554 202.137 49.8139 203.09 50.262C204.31 50.8106 205.445 50.9943 206.759 50.6294C208.611 50.1191 210.331 50.387 211.446 52.1602C212.561 53.9334 214.204 54.8647 216.089 55.5178C218.539 56.3649 218.641 56.6711 217.646 58.9801C217.391 59.595 217.49 60.4191 217.584 61.1258C217.653 61.6539 218.095 62.1463 218.153 62.6566C218.222 63.3685 218.074 64.1032 218.018 64.8789C219.378 64.167 220.651 65.0166 221.914 65.9632C222.649 66.5143 223.243 66.3561 223.634 65.5014C223.81 65.1213 224.016 64.7539 224.233 64.3329L225.356 64.6365C226.017 63.3174 226.66 61.9831 227.351 60.6742C228.043 59.3653 229.137 59.225 230.114 60.2864C230.583 60.8332 230.986 61.4325 231.316 62.0723C232.724 64.537 234.117 67.011 235.493 69.4943C235.738 69.9881 235.945 70.4998 236.113 71.0251C236.475 72.0151 236.546 72.8902 234.73 73.0331C235.817 73.75 236.569 74.2629 237.337 74.7502C238.439 75.4492 239.437 76.1866 238.539 77.8322C239.901 78.1563 241.121 78.4242 242.328 78.7456C242.982 78.9136 243.62 79.1407 244.234 79.4243C245.119 79.8427 245.764 80.4117 244.841 81.4424C246.79 81.6466 246.882 81.7384 246.754 83.2437C247.091 83.2437 247.423 83.2437 247.757 83.2437C248.678 83.2437 249.12 83.6596 249.168 84.6393C249.224 85.7925 249.584 86.9356 249.553 88.0862C249.538 88.6705 249.102 89.5227 248.612 89.7676C247.377 90.3825 245.984 90.6708 244.695 91.1913C243.785 91.5587 242.744 91.9031 242.108 92.5843C240.807 93.9825 239.256 94.5208 237.457 94.531C234.569 94.5463 231.681 94.429 228.798 94.531C227.382 94.5744 225.971 94.9214 224.57 95.1969C224.231 95.2633 223.756 95.5235 223.657 95.8042C223.2 97.1181 222.044 97.1972 221.001 97.7254C217.921 99.2817 214.704 100.813 212.107 103.019C203.942 109.969 201.258 119.004 203.057 129.462C203.236 130.498 203.537 131.503 203.705 132.549C203.896 133.71 203.73 134.641 202.743 135.611C201.057 137.262 198.982 138.244 197.089 139.53C195.525 140.541 194.013 141.632 192.561 142.798C190.833 144.247 190.428 146.37 191.3 148.452C191.971 150.052 192.737 151.616 193.364 153.231C194.214 155.415 194.061 157.522 192.517 159.67C190.82 157.775 189.131 155.994 187.593 154.09C187.154 153.55 187.203 152.636 186.942 151.927C186.639 151.105 186.363 150.223 185.845 149.544C185.243 148.75 184.427 148.268 183.327 149.003C182.429 149.605 181.648 149.363 180.924 148.457C180.46 147.953 179.821 147.645 179.138 147.595C177.12 147.488 175.091 147.554 172.785 147.554C172.935 148.215 172.956 148.789 173.196 149.248C173.634 150.095 173.257 150.437 172.517 150.343C171.098 150.156 169.71 149.717 168.289 149.577C165.904 149.34 163.503 149.23 161.105 149.136C160.834 149.136 160.556 149.569 160.265 149.781C159.602 150.263 158.989 150.932 158.247 151.156C157.257 151.457 156.397 151.692 155.555 152.46C154.767 153.18 154.721 153.715 154.695 154.675C154.621 156.687 154.358 158.687 153.91 160.65C153.144 164.163 153.427 167.307 156.308 169.835C156.612 170.09 156.744 170.56 157.007 170.889C157.318 171.277 157.844 171.999 158.007 171.93C159.793 171.182 160.559 173.905 162.444 173.093C163.559 172.614 164.924 172.688 166.182 172.583C167.383 172.478 167.945 171.718 168.32 170.708C168.552 170.072 168.789 169.432 169.014 168.802C169.166 168.289 169.473 167.835 169.893 167.503C170.312 167.17 170.824 166.975 171.359 166.944C173.037 166.768 174.716 166.528 176.4 166.46C176.995 166.434 177.607 166.83 178.28 167.054C178.174 167.327 178.045 167.591 177.895 167.842C177.023 168.947 176.658 170.065 176.65 171.59C176.65 173.177 175.734 174.8 175.048 176.328C174.282 178.053 174.43 178.329 176.308 178.436C178.663 178.571 181.036 177.778 183.373 178.658C186.274 179.747 186.672 180.398 185.868 182.975C185.741 183.378 185.613 183.778 185.478 184.184C185.227 185.005 185.146 185.87 185.239 186.723C185.333 187.577 185.6 188.403 186.024 189.15C186.447 189.898 187.018 190.551 187.703 191.07C188.387 191.589 189.17 191.963 190.004 192.17C190.449 192.24 190.904 192.142 191.28 191.894C192.051 191.4 192.912 191.063 193.813 190.903C194.715 190.744 195.639 190.764 196.533 190.963C197.538 191.162 198.396 192.149 199.283 192.828C199.383 192.905 199.283 193.3 199.22 193.52C198.944 194.318 198.638 195.107 198.299 196.017C197.651 195.099 197.023 194.308 196.513 193.443C195.918 192.443 195.204 192.216 194.183 192.772C193.667 193.02 193.138 193.24 192.599 193.433C192.657 193.575 192.706 193.721 192.747 193.869C192.831 194.257 192.902 194.65 192.979 195.043C192.543 195.08 192.104 195.08 191.668 195.043C187.789 194.42 184.73 192.04 181.437 190.18C180.81 189.768 180.329 189.169 180.061 188.468C179.127 186.172 177.303 184.822 175.127 184.062C172.3 183.074 169.363 182.39 166.48 181.556C166.127 181.475 165.802 181.298 165.541 181.046C163.48 178.658 160.98 177.607 157.836 178.408C154.831 179.173 152.042 178.219 149.279 177.257C148.003 176.816 146.827 176.119 145.602 175.55C144.148 174.877 142.661 174.274 141.245 173.535C139.413 172.575 137.617 171.539 135.856 170.455C135.642 170.325 135.672 169.69 135.7 169.297C135.731 168.855 136.058 168.383 135.956 167.993C135.509 166.153 135.17 164.253 133.453 163.013C133.047 162.719 132.766 162.161 132.588 161.666C130.087 154.714 125.543 149.571 118.956 146.237C118.445 145.982 118.091 145.472 117.609 145.158C116.968 144.747 116.203 144.025 115.618 144.138C113.896 144.456 112.376 143.839 110.807 143.477C110.087 143.308 109.444 142.788 108.765 142.413C108.71 142.381 108.663 142.339 108.625 142.288C108.587 142.237 108.56 142.179 108.546 142.117C108.421 140.043 106.801 139.655 105.27 138.943C103.061 137.922 100.894 136.726 99.4938 134.542C97.5522 131.511 95.4728 128.566 93.5746 125.512C93.0821 124.77 92.7546 123.93 92.6142 123.049C92.4738 122.169 92.5237 121.269 92.7607 120.41C92.9928 119.537 92.4851 118.356 92.0361 117.453C91.587 116.549 91.4697 115.861 92.1203 115.133C92.7709 114.406 92.5489 113.567 92.5285 112.684C92.4672 109.86 92.6382 107.033 92.6025 104.206C92.6025 103.522 92.1152 102.851 91.9111 102.165C91.7197 101.522 91.61 100.856 91.4646 100.203C92.1765 100.13 92.8923 100.103 93.6077 100.121C94.0516 100.154 94.4624 100.478 94.9089 100.585C96.7919 101.012 96.7944 100.999 96.3403 102.815Z" stroke="black" stroke-width="0.5" stroke-miterlimit="10"/>
</svg>
