<svg width="122" height="182" viewBox="0 0 122 182" fill="none" xmlns="http://www.w3.org/2000/svg">
<path d="M49.7655 160.678C45.0976 167.558 41.6181 174.571 51.3215 180.297C47.5838 183.175 40.1846 182.063 37.8075 178.209C36.0477 175.42 34.5927 172.45 33.4673 169.351C32.9211 167.78 33.603 165.792 33.6692 163.992C33.6957 163.235 33.805 162.338 33.4574 161.736C31.6895 158.716 32.1 156.774 33.6229 153.655C34.4671 151.932 33.7752 149.461 33.7752 147.324L32.7191 147.271C32.6264 148.594 32.5359 149.926 32.4476 151.267L31.8318 151.313C31.5008 149.077 30.9546 146.847 30.9016 144.608C30.7659 138.945 29.4482 133.232 31.6729 127.642C32.1728 126.391 32.1729 124.903 32.2093 123.517C32.4675 112.852 32.7324 102.184 32.888 91.5164C32.9873 84.5401 31.2889 78.4271 23.5619 76.3332C17.1426 74.5933 15.0867 69.1088 12.3323 64.1437C9.9685 59.8798 7.64778 55.5895 5.24757 51.3455C4.72567 50.3565 4.0317 49.4683 3.19824 48.7223C-0.900318 45.3218 -0.963201 43.1717 3.05259 39.8142C3.34609 39.5222 3.61005 39.202 3.84056 38.8582C0.890792 35.0112 1.93026 30.6084 5.34683 27.0094C8.03837 24.1745 12.6302 22.2957 11.9151 16.9865C11.6569 15.1275 11.743 13.8936 9.72678 12.4382C7.64109 10.9331 6.94591 7.50611 5.64152 4.91935L6.9922 3.65574L13.8154 6.80154C15.5237 4.91935 17.3081 2.11757 19.8308 0.40409C22.3535 -1.30939 25.6013 -1.91143 28.1703 -2.87402C27.7598 -0.340185 27.2996 2.51121 26.8461 5.3626L28.7497 5.571L28.9847 0.893651L32.2523 -1.00838C36.225 0.314771 40.062 2.06134 44.0811 2.74607C46.6303 3.1794 49.4411 1.95879 52.1492 1.61477C53.4734 1.44606 54.8308 1.585 56.9662 1.585L54.4534 3.6855C58.3102 7.06616 62.0512 10.6321 66.1167 13.7547C67.3615 14.714 69.4968 14.7802 71.2283 14.8033C77.8297 14.886 80.5179 17.3934 83.8881 22.8911C85.8215 26.0501 84.8813 31.3129 90.0028 32.4839C90.2114 32.5336 90.1519 33.7442 90.2413 34.6638C94.4358 31.3129 98.498 34.2272 100.418 36.3575C103.619 39.9068 107.672 38.4348 110.979 40.1086C113.627 41.4318 116.461 42.4241 119.113 43.7473C121.293 44.8873 123.401 46.1587 125.427 47.5547C126.244 48.1005 127.148 48.8778 127.466 49.7643C128.866 53.6312 128.214 57.1839 125.221 60.1279C123.639 61.6859 122.113 63.3895 120.255 64.5704C114.521 68.2521 114.465 74.4511 112.856 80.0513C111.27 85.5755 109.135 91.1691 104.076 94.3116C101.252 96.0648 97.3889 96.1309 93.9988 96.9943C88.3707 98.4266 87.2054 100.785 85.8911 106.352C85.0634 109.862 82.0242 112.909 79.7631 116.011C78.2137 118.138 76.1413 119.885 74.582 122.008C71.907 125.647 68.7718 126.511 64.8123 124.245C64.1502 123.871 63.4417 123.623 61.9056 122.938C62.6273 124.344 62.8127 124.982 63.21 125.435C68.3216 131.251 64.5938 135.534 59.6246 136.269C56.7278 136.692 53.6654 136.758 54.2878 141.231C54.3441 141.644 51.1527 142.504 48.6863 143.457L51.2586 147C50.6528 148.468 49.8549 150.38 49.0703 152.292C48.8617 152.798 48.8187 153.42 48.4909 153.817C44.9552 158.131 44.942 158.121 49.7655 160.678Z" stroke="black" stroke-width="0.5" stroke-miterlimit="10"/>
</svg>
